<svg width="18" height="18" viewBox="0 0 18 18" fill="none" xmlns="http://www.w3.org/2000/svg">
<path d="M8.99935 0.666626C4.39685 0.666626 0.666016 4.39746 0.666016 8.99996C0.666016 13.6025 4.39685 17.3333 8.99935 17.3333C13.6018 17.3333 17.3327 13.6025 17.3327 8.99996C17.3327 4.39746 13.6018 0.666626 8.99935 0.666626ZM2.33268 8.99996C2.33268 7.23185 3.03506 5.53616 4.2853 4.28591C5.53555 3.03567 7.23124 2.33329 8.99935 2.33329C10.5393 2.33329 11.9535 2.86079 13.0827 3.73829L3.73768 13.0833C2.82684 11.9171 2.33227 10.4797 2.33268 8.99996ZM8.99935 15.6666C7.51957 15.6672 6.08216 15.1726 4.91602 14.2616L14.261 4.91663C15.1719 6.08284 15.6664 7.52021 15.666 8.99996C15.666 10.7681 14.9636 12.4638 13.7134 13.714C12.4632 14.9642 10.7675 15.6666 8.99935 15.6666Z" fill="#8C8C9C"/>
</svg>
