<svg width="227" height="47" viewBox="0 0 227 47" fill="none" xmlns="http://www.w3.org/2000/svg">
<path d="M8.60352 28.9219H9.82812C11.9193 28.9219 13.6237 29.7096 14.9414 31.2852C16.2591 32.8464 16.7676 34.694 16.4668 36.8281L16.4238 37H7.12109C5.02995 37 3.32552 36.2194 2.00781 34.6582C0.690104 33.0827 0.181641 31.2279 0.482422 29.0938L4.54297 6.0625C4.8724 4.42969 5.65299 3.09766 6.88477 2.06641C8.11654 1.02083 9.54883 0.498047 11.1816 0.498047H13.6094L8.60352 28.9219ZM25.4258 36.957C23.3346 36.957 21.6302 36.1764 20.3125 34.6152C18.9948 33.0397 18.4863 31.1849 18.7871 29.0508L21.3223 15.2793C21.6374 13.6465 22.4108 12.3145 23.6426 11.2832C24.8887 10.2376 26.3281 9.71484 27.9609 9.71484H39.3047C41.3958 9.71484 43.1003 10.5026 44.418 12.0781C45.7357 13.6393 46.2441 15.4941 45.9434 17.6426L45.2344 21.8105C44.9193 23.4577 44.1387 24.7969 42.8926 25.8281C41.6608 26.8594 40.2285 27.375 38.5957 27.375H29.2285L30.6465 19.2969H37.6074L37.8223 17.8145H28.9707L26.9082 28.8789H35.8887C37.9798 28.8789 39.6842 29.6667 41.002 31.2422C42.3197 32.8034 42.8281 34.651 42.5273 36.7852L42.4844 36.957H25.4258ZM58.9844 28.9219C61.0755 28.9219 62.7728 29.7096 64.0762 31.2852C65.3939 32.8464 65.9023 34.694 65.6016 36.8281L65.5801 37H55.2031C53.112 37 51.4076 36.2194 50.0898 34.6582C48.7721 33.0827 48.2637 31.2279 48.5645 29.0938L52.625 6.08398C52.9401 4.45117 53.7135 3.11914 54.9453 2.08789C56.1914 1.04232 57.6309 0.519531 59.2637 0.519531H61.6914L59.7578 11.498H65.8164L64.377 19.5762H58.3398L56.6855 28.9219H58.9844ZM74.1738 0.5625C74.5892 0.5625 74.9258 0.720052 75.1836 1.03516C75.4557 1.35026 75.5632 1.72266 75.5059 2.15234L74.9688 5.16016C74.7969 6.0625 74.3743 6.82878 73.7012 7.45898L72.0039 9.07031C71.918 9.15625 71.8249 9.19206 71.7246 9.17773C71.6243 9.14909 71.5384 9.09896 71.4668 9.02734C71.4095 8.94141 71.3952 8.84115 71.4238 8.72656L72.0684 6.53516H69.9414C69.526 6.53516 69.1823 6.3776 68.9102 6.0625C68.6523 5.7474 68.5521 5.375 68.6094 4.94531L69.1895 1.67969C69.2611 1.35026 69.4186 1.08529 69.6621 0.884766C69.9056 0.669922 70.1921 0.5625 70.5215 0.5625H74.1738ZM97.0332 17.2988H90.459L90.0938 19.1895H95.5508C97.6419 19.1895 99.3464 19.9271 100.664 21.4023C101.982 22.8633 102.49 24.5964 102.189 26.6016L101.201 31.8008C100.886 33.3333 100.105 34.5866 98.8594 35.5605C97.6276 36.5202 96.1953 37 94.5625 37H79.9102L80.3613 34.6367C80.6764 33.1042 81.4499 31.8581 82.6816 30.8984C83.9134 29.9245 85.3457 29.4375 86.9785 29.4375H93.5527L94.0898 26.752H88.6113C86.5202 26.752 84.8158 26.0215 83.498 24.5605C82.1803 23.0853 81.679 21.3522 81.9941 19.3613L82.8105 14.9355C83.1257 13.403 83.8991 12.1569 85.1309 11.1973C86.377 10.2233 87.8164 9.73633 89.4492 9.73633H104.102L103.65 12.0781C103.335 13.6107 102.562 14.8639 101.33 15.8379C100.098 16.8118 98.666 17.2988 97.0332 17.2988Z" fill="url(#paint0_linear)"/>
<path d="M143.332 9.73633C145.423 9.73633 147.128 10.5241 148.445 12.0996C149.763 13.6751 150.264 15.5299 149.949 17.6641L147.586 31.4141C147.271 33.0469 146.497 34.3789 145.266 35.4102C144.034 36.4414 142.602 36.957 140.969 36.957H132.891L134.309 28.8789H139.959L141.85 17.8359H134.115L130.033 40.6738C129.704 42.3066 128.923 43.6387 127.691 44.6699C126.46 45.7012 125.027 46.2168 123.395 46.2168H120.988L126.488 15.3223C126.803 13.6751 127.577 12.3359 128.809 11.3047C130.055 10.2591 131.494 9.73633 133.127 9.73633H143.332ZM160.67 28.9219H161.895C163.986 28.9219 165.69 29.7096 167.008 31.2852C168.326 32.8464 168.834 34.694 168.533 36.8281L168.49 37H159.188C157.096 37 155.392 36.2194 154.074 34.6582C152.757 33.0827 152.248 31.2279 152.549 29.0938L156.609 6.0625C156.939 4.42969 157.719 3.09766 158.951 2.06641C160.183 1.02083 161.615 0.498047 163.248 0.498047H165.676L160.67 28.9219ZM192.016 9.71484C194.107 9.71484 195.811 10.5026 197.129 12.0781C198.447 13.6393 198.955 15.487 198.654 17.6211L196.119 31.3926C195.79 33.0254 195.009 34.3646 193.777 35.4102C192.546 36.4414 191.113 36.957 189.48 36.957H178.137C176.046 36.957 174.341 36.1764 173.023 34.6152C171.706 33.0397 171.197 31.1849 171.498 29.0508L172.207 24.8613C172.522 23.2142 173.296 21.875 174.527 20.8438C175.773 19.8125 177.213 19.2969 178.846 19.2969H188.213L186.795 27.375H179.834L179.619 28.8789H188.471L190.533 17.8145H181.553C179.462 17.8145 177.757 17.0339 176.439 15.4727C175.122 13.8971 174.613 12.0423 174.914 9.9082L174.957 9.71484H192.016ZM226.799 9.73633L213.887 46.2168C212.569 46.2168 211.416 45.8372 210.428 45.0781C209.439 44.3333 208.752 43.3809 208.365 42.2207C207.979 41.0605 207.986 39.8359 208.387 38.5469L210.02 33.6914C206.983 33.1185 205.092 31.3066 204.348 28.2559L199.105 9.73633H201.598C203.216 9.73633 204.641 10.252 205.873 11.2832C207.105 12.3001 207.885 13.6178 208.215 15.2363L212.275 27.418L217.088 14.1836C217.604 12.8229 218.434 11.7415 219.58 10.9395C220.726 10.1374 222.008 9.73633 223.426 9.73633H226.799Z" fill="#FA7E0D"/>
<defs>
<linearGradient id="paint0_linear" x1="113.5" y1="-10" x2="113.5" y2="46" gradientUnits="userSpaceOnUse">
<stop stop-color="#FA7E0D"/>
<stop offset="1" stop-color="#D25C15"/>
</linearGradient>
</defs>
</svg>
