<svg width="129" height="27" viewBox="0 0 129 27" fill="none" xmlns="http://www.w3.org/2000/svg">
<path d="M5.40198 16.4561H6.09082C7.26709 16.4561 8.22583 16.8992 8.96704 17.7854C9.70825 18.6636 9.99426 19.7029 9.82507 20.9033L9.8009 21H4.56811C3.39185 21 2.43311 20.5609 1.69189 19.6827C0.950684 18.7965 0.664673 17.7532 0.833862 16.5527L3.11792 3.59766C3.30322 2.6792 3.74231 1.92993 4.43518 1.34986C5.12805 0.76172 5.93372 0.467653 6.85217 0.467653H8.21777L5.40198 16.4561ZM14.8645 20.9758C13.6882 20.9758 12.7295 20.5367 11.9883 19.6586C11.2471 18.7723 10.9611 17.729 11.1302 16.5286L12.5563 8.78211C12.7335 7.86365 13.1686 7.11438 13.8614 6.5343C14.5624 5.94617 15.3721 5.6521 16.2905 5.6521H22.6714C23.8477 5.6521 24.8064 6.09522 25.5476 6.98145C26.2888 7.85962 26.5748 8.90296 26.4056 10.1115L26.0068 12.4559C25.8296 13.3824 25.3905 14.1357 24.6896 14.7158C23.9967 15.2959 23.191 15.5859 22.2726 15.5859H17.0035L17.8011 11.042H21.7167L21.8375 10.2081H16.8585L15.6984 16.4319H20.7499C21.9261 16.4319 22.8849 16.875 23.6261 17.7612C24.3673 18.6394 24.6533 19.6787 24.4841 20.8792L24.46 20.9758H14.8645ZM33.7412 16.4561C34.9175 16.4561 35.8722 16.8992 36.6053 17.7854C37.3466 18.6636 37.6326 19.7029 37.4634 20.9033L37.4513 21H31.6143C30.438 21 29.4792 20.5609 28.738 19.6827C27.9968 18.7965 27.7108 17.7532 27.88 16.5527L30.1641 3.60974C30.3413 2.69129 30.7764 1.94202 31.4692 1.36194C32.1702 0.773805 32.9799 0.479738 33.8983 0.479738H35.2639L34.1763 6.65515H37.5842L36.7745 11.1991H33.3787L32.4481 16.4561H33.7412ZM42.2853 0.503908C42.5189 0.503908 42.7082 0.592531 42.8533 0.769777C43.0063 0.947023 43.0668 1.1565 43.0345 1.39819L42.7324 3.09009C42.6357 3.59766 42.3981 4.02869 42.0194 4.38318L41.0647 5.28955C41.0164 5.33789 40.964 5.35803 40.9076 5.34998C40.8512 5.33386 40.8029 5.30567 40.7626 5.26538C40.7303 5.21704 40.7223 5.16065 40.7384 5.09619L41.1009 3.86353H39.9045C39.6709 3.86353 39.4775 3.7749 39.3245 3.59766C39.1794 3.42041 39.123 3.21094 39.1553 2.96924L39.4816 1.13233C39.5218 0.947023 39.6105 0.797975 39.7474 0.685182C39.8844 0.564333 40.0455 0.503908 40.2308 0.503908H42.2853ZM55.1437 9.91809H51.4457L51.2402 10.9816H54.3098C55.4861 10.9816 56.4448 11.3965 57.186 12.2263C57.9272 13.0481 58.2133 14.0229 58.0441 15.1509L57.4882 18.0754C57.3109 18.9375 56.8718 19.6425 56.1709 20.1903C55.478 20.7301 54.6724 21 53.7539 21H45.512L45.7657 19.6707C45.943 18.8086 46.378 18.1077 47.0709 17.5679C47.7638 17.02 48.5695 16.7461 49.4879 16.7461H53.1859L53.488 15.2355H50.4064C49.2301 15.2355 48.2714 14.8246 47.5301 14.0028C46.7889 13.173 46.507 12.1981 46.6842 11.0782L47.1434 8.58875C47.3207 7.72669 47.7557 7.02576 48.4486 6.48596C49.1495 5.93811 49.9592 5.66419 50.8777 5.66419H59.1196L58.8658 6.98145C58.6886 7.84351 58.2535 8.54846 57.5607 9.09631C56.8678 9.64417 56.0621 9.91809 55.1437 9.91809Z" fill="url(#paint0_linear)"/>
<path d="M81.1868 5.66419C82.363 5.66419 83.3218 6.1073 84.063 6.99353C84.8042 7.87976 85.0862 8.9231 84.9089 10.1235L83.5796 17.8579C83.4023 18.7764 82.9673 19.5256 82.2744 20.1057C81.5815 20.6858 80.7759 20.9758 79.8574 20.9758H75.3135L76.1111 16.4319H79.2894L80.3529 10.2202H76.0023L73.7062 23.0665C73.5209 23.985 73.0818 24.7343 72.3889 25.3143C71.696 25.8944 70.8904 26.1844 69.9719 26.1844H68.6184L71.7122 8.80628C71.8894 7.87976 72.3245 7.12647 73.0173 6.54639C73.7183 5.95825 74.5279 5.66419 75.4464 5.66419H81.1868ZM90.9393 16.4561H91.6282C92.8044 16.4561 93.7632 16.8992 94.5044 17.7854C95.2456 18.6636 95.5316 19.7029 95.3624 20.9033L95.3382 21H90.1055C88.9292 21 87.9705 20.5609 87.2292 19.6827C86.488 18.7965 86.202 17.7532 86.3712 16.5527L88.6553 3.59766C88.8406 2.6792 89.2797 1.92993 89.9725 1.34986C90.6654 0.76172 91.4711 0.467653 92.3895 0.467653H93.7551L90.9393 16.4561ZM108.571 5.6521C109.748 5.6521 110.706 6.09522 111.448 6.98145C112.189 7.85962 112.475 8.89893 112.306 10.0994L110.88 17.8458C110.694 18.7643 110.255 19.5176 109.562 20.1057C108.869 20.6858 108.064 20.9758 107.145 20.9758H100.764C99.5881 20.9758 98.6294 20.5367 97.8882 19.6586C97.147 18.7723 96.861 17.729 97.0301 16.5286L97.4289 14.172C97.6062 13.2455 98.0413 12.4922 98.7341 11.9121C99.4351 11.332 100.245 11.042 101.163 11.042H106.432L105.635 15.5859H101.719L101.598 16.4319H106.577L107.737 10.2081H102.686C101.51 10.2081 100.551 9.76904 99.8097 8.89087C99.0685 8.00464 98.7825 6.9613 98.9517 5.76087L98.9758 5.6521H108.571ZM128.137 5.66419L120.874 26.1844C120.133 26.1844 119.484 25.9709 118.928 25.5439C118.372 25.125 117.985 24.5892 117.768 23.9366C117.55 23.2841 117.554 22.5952 117.78 21.8701L118.698 19.1389C116.99 18.8167 115.927 17.7975 115.508 16.0814L112.559 5.66419H113.961C114.872 5.66419 115.673 5.95422 116.366 6.5343C117.059 7.10632 117.498 7.84754 117.683 8.75794L119.967 15.6101L122.674 8.16577C122.964 7.40039 123.432 6.79212 124.076 6.34094C124.721 5.88977 125.442 5.66419 126.239 5.66419H128.137Z" fill="#FA7E0D"/>
<defs>
<linearGradient id="paint0_linear" x1="64.3882" y1="-6" x2="64.3882" y2="25.5" gradientUnits="userSpaceOnUse">
<stop stop-color="#FA7E0D"/>
<stop offset="1" stop-color="#D25C15"/>
</linearGradient>
</defs>
</svg>
